<mxfile host="app.diagrams.net" modified="2023-07-01T04:10:24.925Z" agent="Mozilla/5.0 (Windows NT 10.0; Win64; x64) AppleWebKit/537.36 (KHTML, like Gecko) Chrome/114.0.0.0 Safari/537.36" etag="jP0zJzIxIM-838Il_fZ8" version="21.5.2" type="google">
  <diagram name="페이지-1" id="ubrdwP0Qm6k4QSXeCpCr">
    <mxGraphModel grid="1" page="1" gridSize="10" guides="1" tooltips="1" connect="1" arrows="1" fold="1" pageScale="1" pageWidth="827" pageHeight="1169" math="0" shadow="0">
      <root>
        <mxCell id="0" />
        <mxCell id="1" parent="0" />
        <mxCell id="GzFKX5CuP2iNdJsE1r2e-2" value="&lt;span style=&quot;border-bottom: 1px dotted&quot;&gt;제목&lt;br&gt;&lt;/span&gt;" style="ellipse;whiteSpace=wrap;html=1;align=center;labelBackgroundColor=none;fillColor=#09555B;strokeColor=#BAC8D3;fontColor=#EEEEEE;" vertex="1" parent="1">
          <mxGeometry x="41" y="210" width="100" height="40" as="geometry" />
        </mxCell>
        <mxCell id="GzFKX5CuP2iNdJsE1r2e-3" value="&lt;span style=&quot;border-bottom: 1px dotted&quot;&gt;내용&lt;/span&gt;" style="ellipse;whiteSpace=wrap;html=1;align=center;labelBackgroundColor=none;fillColor=#09555B;strokeColor=#BAC8D3;fontColor=#EEEEEE;" vertex="1" parent="1">
          <mxGeometry x="40" y="258" width="100" height="40" as="geometry" />
        </mxCell>
        <mxCell id="GzFKX5CuP2iNdJsE1r2e-4" value="&lt;span style=&quot;border-bottom: 1px dotted&quot;&gt;작성일&lt;/span&gt;" style="ellipse;whiteSpace=wrap;html=1;align=center;labelBackgroundColor=none;fillColor=#09555B;strokeColor=#BAC8D3;fontColor=#EEEEEE;" vertex="1" parent="1">
          <mxGeometry x="41" y="310" width="100" height="40" as="geometry" />
        </mxCell>
        <mxCell id="GzFKX5CuP2iNdJsE1r2e-5" value="&lt;span style=&quot;border-bottom: 1px dotted&quot;&gt;작성자&lt;/span&gt;" style="ellipse;whiteSpace=wrap;html=1;align=center;labelBackgroundColor=none;fillColor=#09555B;strokeColor=#BAC8D3;fontColor=#EEEEEE;" vertex="1" parent="1">
          <mxGeometry x="41" y="370" width="100" height="40" as="geometry" />
        </mxCell>
        <mxCell id="GzFKX5CuP2iNdJsE1r2e-6" value="글" style="whiteSpace=wrap;html=1;align=center;labelBackgroundColor=none;fillColor=#09555B;strokeColor=#BAC8D3;fontColor=#EEEEEE;" vertex="1" parent="1">
          <mxGeometry x="211" y="258" width="79" height="40" as="geometry" />
        </mxCell>
        <mxCell id="GzFKX5CuP2iNdJsE1r2e-7" value="" style="endArrow=none;html=1;rounded=0;entryX=0;entryY=0.5;entryDx=0;entryDy=0;labelBackgroundColor=none;fontColor=default;strokeColor=#0B4D6A;" edge="1" parent="1" target="GzFKX5CuP2iNdJsE1r2e-6">
          <mxGeometry relative="1" as="geometry">
            <mxPoint x="141" y="229.5" as="sourcePoint" />
            <mxPoint x="301" y="229.5" as="targetPoint" />
          </mxGeometry>
        </mxCell>
        <mxCell id="GzFKX5CuP2iNdJsE1r2e-8" value="" style="endArrow=none;html=1;rounded=0;exitX=1;exitY=0.5;exitDx=0;exitDy=0;entryX=0;entryY=0.5;entryDx=0;entryDy=0;labelBackgroundColor=none;fontColor=default;strokeColor=#0B4D6A;" edge="1" parent="1" source="GzFKX5CuP2iNdJsE1r2e-3" target="GzFKX5CuP2iNdJsE1r2e-6">
          <mxGeometry relative="1" as="geometry">
            <mxPoint x="141" y="380" as="sourcePoint" />
            <mxPoint x="221" y="350" as="targetPoint" />
          </mxGeometry>
        </mxCell>
        <mxCell id="GzFKX5CuP2iNdJsE1r2e-9" value="" style="endArrow=none;html=1;rounded=0;exitX=1;exitY=0.5;exitDx=0;exitDy=0;entryX=0;entryY=0.5;entryDx=0;entryDy=0;labelBackgroundColor=none;fontColor=default;strokeColor=#0B4D6A;" edge="1" parent="1" source="GzFKX5CuP2iNdJsE1r2e-4" target="GzFKX5CuP2iNdJsE1r2e-6">
          <mxGeometry relative="1" as="geometry">
            <mxPoint x="151" y="330" as="sourcePoint" />
            <mxPoint x="221" y="360" as="targetPoint" />
          </mxGeometry>
        </mxCell>
        <mxCell id="GzFKX5CuP2iNdJsE1r2e-10" value="" style="endArrow=none;html=1;rounded=0;exitX=1;exitY=0.5;exitDx=0;exitDy=0;entryX=0;entryY=0.5;entryDx=0;entryDy=0;labelBackgroundColor=none;fontColor=default;strokeColor=#0B4D6A;" edge="1" parent="1" target="GzFKX5CuP2iNdJsE1r2e-6">
          <mxGeometry relative="1" as="geometry">
            <mxPoint x="141" y="390" as="sourcePoint" />
            <mxPoint x="211" y="420" as="targetPoint" />
          </mxGeometry>
        </mxCell>
        <mxCell id="GzFKX5CuP2iNdJsE1r2e-11" value="&lt;span style=&quot;border-bottom: 1px dotted&quot;&gt;글id&lt;br&gt;&lt;/span&gt;" style="ellipse;whiteSpace=wrap;html=1;align=center;labelBackgroundColor=none;fillColor=#09555B;strokeColor=#BAC8D3;fontColor=#EEEEEE;" vertex="1" parent="1">
          <mxGeometry x="41" y="150" width="100" height="40" as="geometry" />
        </mxCell>
        <mxCell id="GzFKX5CuP2iNdJsE1r2e-13" value="" style="endArrow=none;html=1;rounded=0;exitX=1;exitY=0.5;exitDx=0;exitDy=0;entryX=0;entryY=0.5;entryDx=0;entryDy=0;labelBackgroundColor=none;fontColor=default;strokeColor=#0B4D6A;" edge="1" parent="1" source="GzFKX5CuP2iNdJsE1r2e-11" target="GzFKX5CuP2iNdJsE1r2e-6">
          <mxGeometry relative="1" as="geometry">
            <mxPoint x="151" y="239.5" as="sourcePoint" />
            <mxPoint x="221" y="250" as="targetPoint" />
          </mxGeometry>
        </mxCell>
        <mxCell id="Z2ZuWP9p17zkISfbHA6R-1" value="&lt;span style=&quot;border-bottom: 1px dotted&quot;&gt;카테고리&lt;br&gt;&lt;/span&gt;" style="ellipse;whiteSpace=wrap;html=1;align=center;labelBackgroundColor=none;fillColor=#09555B;strokeColor=#BAC8D3;fontColor=#EEEEEE;" vertex="1" parent="1">
          <mxGeometry x="41" y="90" width="100" height="40" as="geometry" />
        </mxCell>
        <mxCell id="Z2ZuWP9p17zkISfbHA6R-2" value="" style="endArrow=none;html=1;rounded=0;exitX=1;exitY=0.5;exitDx=0;exitDy=0;entryX=0;entryY=0.5;entryDx=0;entryDy=0;labelBackgroundColor=none;fontColor=default;strokeColor=#0B4D6A;" edge="1" parent="1" source="Z2ZuWP9p17zkISfbHA6R-1" target="GzFKX5CuP2iNdJsE1r2e-6">
          <mxGeometry relative="1" as="geometry">
            <mxPoint x="151" y="170" as="sourcePoint" />
            <mxPoint x="230" y="240" as="targetPoint" />
          </mxGeometry>
        </mxCell>
        <mxCell id="Z2ZuWP9p17zkISfbHA6R-3" value="유저" style="whiteSpace=wrap;html=1;align=center;labelBackgroundColor=none;fillColor=#09555B;strokeColor=#BAC8D3;fontColor=#EEEEEE;" vertex="1" parent="1">
          <mxGeometry x="480" y="258" width="79" height="40" as="geometry" />
        </mxCell>
        <mxCell id="Z2ZuWP9p17zkISfbHA6R-4" value="&lt;span style=&quot;border-bottom: 1px dotted&quot;&gt;ID&lt;br&gt;&lt;/span&gt;" style="ellipse;whiteSpace=wrap;html=1;align=center;labelBackgroundColor=none;fillColor=#09555B;strokeColor=#BAC8D3;fontColor=#EEEEEE;" vertex="1" parent="1">
          <mxGeometry x="630" y="100" width="100" height="40" as="geometry" />
        </mxCell>
        <mxCell id="Z2ZuWP9p17zkISfbHA6R-5" value="&lt;span style=&quot;border-bottom: 1px dotted&quot;&gt;유저명&lt;br&gt;&lt;/span&gt;" style="ellipse;whiteSpace=wrap;html=1;align=center;labelBackgroundColor=none;fillColor=#09555B;strokeColor=#BAC8D3;fontColor=#EEEEEE;" vertex="1" parent="1">
          <mxGeometry x="630" y="160" width="100" height="40" as="geometry" />
        </mxCell>
        <mxCell id="Z2ZuWP9p17zkISfbHA6R-6" value="&lt;span style=&quot;border-bottom: 1px dotted&quot;&gt;프로필URL&lt;br&gt;&lt;/span&gt;" style="ellipse;whiteSpace=wrap;html=1;align=center;labelBackgroundColor=none;fillColor=#09555B;strokeColor=#BAC8D3;fontColor=#EEEEEE;" vertex="1" parent="1">
          <mxGeometry x="630" y="220" width="100" height="40" as="geometry" />
        </mxCell>
        <mxCell id="Z2ZuWP9p17zkISfbHA6R-7" value="&lt;span style=&quot;border-bottom: 1px dotted&quot;&gt;지역&lt;br&gt;&lt;/span&gt;" style="ellipse;whiteSpace=wrap;html=1;align=center;labelBackgroundColor=none;fillColor=#09555B;strokeColor=#BAC8D3;fontColor=#EEEEEE;" vertex="1" parent="1">
          <mxGeometry x="630" y="280" width="100" height="40" as="geometry" />
        </mxCell>
        <mxCell id="Z2ZuWP9p17zkISfbHA6R-8" value="email" style="ellipse;whiteSpace=wrap;html=1;align=center;labelBackgroundColor=none;fillColor=#09555B;strokeColor=#BAC8D3;fontColor=#EEEEEE;" vertex="1" parent="1">
          <mxGeometry x="630" y="350" width="100" height="40" as="geometry" />
        </mxCell>
        <mxCell id="Z2ZuWP9p17zkISfbHA6R-9" value="&lt;span style=&quot;border-bottom: 1px dotted&quot;&gt;password&lt;br&gt;&lt;/span&gt;" style="ellipse;whiteSpace=wrap;html=1;align=center;labelBackgroundColor=none;fillColor=#09555B;strokeColor=#BAC8D3;fontColor=#EEEEEE;" vertex="1" parent="1">
          <mxGeometry x="630" y="410" width="100" height="40" as="geometry" />
        </mxCell>
        <mxCell id="Z2ZuWP9p17zkISfbHA6R-10" value="&lt;span style=&quot;border-bottom: 1px dotted&quot;&gt;가입일시&lt;br&gt;&lt;/span&gt;" style="ellipse;whiteSpace=wrap;html=1;align=center;labelBackgroundColor=none;fillColor=#09555B;strokeColor=#BAC8D3;fontColor=#EEEEEE;" vertex="1" parent="1">
          <mxGeometry x="630" y="470" width="100" height="40" as="geometry" />
        </mxCell>
        <mxCell id="Z2ZuWP9p17zkISfbHA6R-12" value="" style="endArrow=none;html=1;rounded=0;entryX=-0.003;entryY=0.746;entryDx=0;entryDy=0;entryPerimeter=0;exitX=1;exitY=0.5;exitDx=0;exitDy=0;labelBackgroundColor=none;fontColor=default;strokeColor=#0B4D6A;" edge="1" parent="1" source="Z2ZuWP9p17zkISfbHA6R-3" target="Z2ZuWP9p17zkISfbHA6R-4">
          <mxGeometry width="50" height="50" relative="1" as="geometry">
            <mxPoint x="430" y="440" as="sourcePoint" />
            <mxPoint x="480" y="390" as="targetPoint" />
          </mxGeometry>
        </mxCell>
        <mxCell id="Z2ZuWP9p17zkISfbHA6R-13" value="" style="endArrow=none;html=1;rounded=0;entryX=0;entryY=0.5;entryDx=0;entryDy=0;exitX=1;exitY=0.5;exitDx=0;exitDy=0;labelBackgroundColor=none;fontColor=default;strokeColor=#0B4D6A;" edge="1" parent="1" source="Z2ZuWP9p17zkISfbHA6R-3" target="Z2ZuWP9p17zkISfbHA6R-5">
          <mxGeometry width="50" height="50" relative="1" as="geometry">
            <mxPoint x="550" y="358" as="sourcePoint" />
            <mxPoint x="621" y="210" as="targetPoint" />
          </mxGeometry>
        </mxCell>
        <mxCell id="Z2ZuWP9p17zkISfbHA6R-14" value="" style="endArrow=none;html=1;rounded=0;entryX=0;entryY=0.5;entryDx=0;entryDy=0;exitX=1;exitY=0.5;exitDx=0;exitDy=0;labelBackgroundColor=none;fontColor=default;strokeColor=#0B4D6A;" edge="1" parent="1" source="Z2ZuWP9p17zkISfbHA6R-3" target="Z2ZuWP9p17zkISfbHA6R-6">
          <mxGeometry width="50" height="50" relative="1" as="geometry">
            <mxPoint x="569" y="288" as="sourcePoint" />
            <mxPoint x="640" y="190" as="targetPoint" />
          </mxGeometry>
        </mxCell>
        <mxCell id="Z2ZuWP9p17zkISfbHA6R-15" value="" style="endArrow=none;html=1;rounded=0;entryX=0;entryY=0.5;entryDx=0;entryDy=0;exitX=1;exitY=0.5;exitDx=0;exitDy=0;labelBackgroundColor=none;fontColor=default;strokeColor=#0B4D6A;" edge="1" parent="1" source="Z2ZuWP9p17zkISfbHA6R-3" target="Z2ZuWP9p17zkISfbHA6R-8">
          <mxGeometry width="50" height="50" relative="1" as="geometry">
            <mxPoint x="580" y="288" as="sourcePoint" />
            <mxPoint x="651" y="250" as="targetPoint" />
          </mxGeometry>
        </mxCell>
        <mxCell id="Z2ZuWP9p17zkISfbHA6R-16" value="" style="endArrow=none;html=1;rounded=0;entryX=0;entryY=0.5;entryDx=0;entryDy=0;exitX=1;exitY=0.5;exitDx=0;exitDy=0;labelBackgroundColor=none;fontColor=default;strokeColor=#0B4D6A;" edge="1" parent="1" source="Z2ZuWP9p17zkISfbHA6R-3" target="Z2ZuWP9p17zkISfbHA6R-9">
          <mxGeometry width="50" height="50" relative="1" as="geometry">
            <mxPoint x="579" y="298" as="sourcePoint" />
            <mxPoint x="650" y="260" as="targetPoint" />
          </mxGeometry>
        </mxCell>
        <mxCell id="Z2ZuWP9p17zkISfbHA6R-17" value="" style="endArrow=none;html=1;rounded=0;entryX=0;entryY=0.5;entryDx=0;entryDy=0;exitX=1;exitY=0.5;exitDx=0;exitDy=0;labelBackgroundColor=none;fontColor=default;strokeColor=#0B4D6A;" edge="1" parent="1" source="Z2ZuWP9p17zkISfbHA6R-3" target="Z2ZuWP9p17zkISfbHA6R-10">
          <mxGeometry width="50" height="50" relative="1" as="geometry">
            <mxPoint x="589" y="308" as="sourcePoint" />
            <mxPoint x="660" y="270" as="targetPoint" />
          </mxGeometry>
        </mxCell>
        <mxCell id="Z2ZuWP9p17zkISfbHA6R-18" value="" style="endArrow=none;html=1;rounded=0;entryX=0;entryY=0.5;entryDx=0;entryDy=0;exitX=1;exitY=0.5;exitDx=0;exitDy=0;labelBackgroundColor=none;fontColor=default;strokeColor=#0B4D6A;" edge="1" parent="1" source="Z2ZuWP9p17zkISfbHA6R-3" target="Z2ZuWP9p17zkISfbHA6R-7">
          <mxGeometry width="50" height="50" relative="1" as="geometry">
            <mxPoint x="569" y="288" as="sourcePoint" />
            <mxPoint x="640" y="250" as="targetPoint" />
          </mxGeometry>
        </mxCell>
        <mxCell id="Z2ZuWP9p17zkISfbHA6R-20" value="댓글" style="whiteSpace=wrap;html=1;align=center;labelBackgroundColor=none;fillColor=#09555B;strokeColor=#BAC8D3;fontColor=#EEEEEE;" vertex="1" parent="1">
          <mxGeometry x="211" y="565" width="79" height="40" as="geometry" />
        </mxCell>
        <mxCell id="Z2ZuWP9p17zkISfbHA6R-21" value="&lt;span style=&quot;border-bottom: 1px dotted&quot;&gt;내용&lt;/span&gt;" style="ellipse;whiteSpace=wrap;html=1;align=center;labelBackgroundColor=none;fillColor=#09555B;strokeColor=#BAC8D3;fontColor=#EEEEEE;" vertex="1" parent="1">
          <mxGeometry x="40" y="575" width="100" height="40" as="geometry" />
        </mxCell>
        <mxCell id="Z2ZuWP9p17zkISfbHA6R-22" value="&lt;span style=&quot;border-bottom: 1px dotted&quot;&gt;작성자&lt;/span&gt;" style="ellipse;whiteSpace=wrap;html=1;align=center;labelBackgroundColor=none;fillColor=#09555B;strokeColor=#BAC8D3;fontColor=#EEEEEE;" vertex="1" parent="1">
          <mxGeometry x="41" y="645" width="100" height="40" as="geometry" />
        </mxCell>
        <mxCell id="Z2ZuWP9p17zkISfbHA6R-23" value="&lt;span style=&quot;border-bottom: 1px dotted&quot;&gt;작성일&lt;/span&gt;" style="ellipse;whiteSpace=wrap;html=1;align=center;labelBackgroundColor=none;fillColor=#09555B;strokeColor=#BAC8D3;fontColor=#EEEEEE;" vertex="1" parent="1">
          <mxGeometry x="41" y="485" width="100" height="40" as="geometry" />
        </mxCell>
        <mxCell id="Z2ZuWP9p17zkISfbHA6R-24" value="" style="endArrow=none;html=1;rounded=0;exitX=1;exitY=0.5;exitDx=0;exitDy=0;entryX=0;entryY=0.5;entryDx=0;entryDy=0;labelBackgroundColor=none;fontColor=default;strokeColor=#0B4D6A;" edge="1" parent="1" source="Z2ZuWP9p17zkISfbHA6R-21" target="Z2ZuWP9p17zkISfbHA6R-20">
          <mxGeometry relative="1" as="geometry">
            <mxPoint x="170" y="737" as="sourcePoint" />
            <mxPoint x="240" y="625" as="targetPoint" />
          </mxGeometry>
        </mxCell>
        <mxCell id="Z2ZuWP9p17zkISfbHA6R-25" value="" style="endArrow=none;html=1;rounded=0;exitX=1;exitY=0.5;exitDx=0;exitDy=0;entryX=0;entryY=0.5;entryDx=0;entryDy=0;labelBackgroundColor=none;fontColor=default;strokeColor=#0B4D6A;" edge="1" parent="1" source="Z2ZuWP9p17zkISfbHA6R-23" target="Z2ZuWP9p17zkISfbHA6R-20">
          <mxGeometry relative="1" as="geometry">
            <mxPoint x="180" y="747" as="sourcePoint" />
            <mxPoint x="250" y="635" as="targetPoint" />
          </mxGeometry>
        </mxCell>
        <mxCell id="Z2ZuWP9p17zkISfbHA6R-26" value="" style="endArrow=none;html=1;rounded=0;exitX=1;exitY=0.5;exitDx=0;exitDy=0;entryX=0;entryY=0.5;entryDx=0;entryDy=0;labelBackgroundColor=none;fontColor=default;strokeColor=#0B4D6A;" edge="1" parent="1" source="Z2ZuWP9p17zkISfbHA6R-22" target="Z2ZuWP9p17zkISfbHA6R-20">
          <mxGeometry relative="1" as="geometry">
            <mxPoint x="190" y="757" as="sourcePoint" />
            <mxPoint x="260" y="645" as="targetPoint" />
          </mxGeometry>
        </mxCell>
        <mxCell id="Z2ZuWP9p17zkISfbHA6R-27" value="작성" style="rhombus;whiteSpace=wrap;html=1;labelBackgroundColor=none;fillColor=#09555B;strokeColor=#BAC8D3;fontColor=#EEEEEE;" vertex="1" parent="1">
          <mxGeometry x="350" y="253" width="80" height="50" as="geometry" />
        </mxCell>
        <mxCell id="Z2ZuWP9p17zkISfbHA6R-31" value="작성" style="rhombus;whiteSpace=wrap;html=1;labelBackgroundColor=none;fillColor=#09555B;strokeColor=#BAC8D3;fontColor=#EEEEEE;" vertex="1" parent="1">
          <mxGeometry x="211" y="390" width="80" height="50" as="geometry" />
        </mxCell>
        <mxCell id="Z2ZuWP9p17zkISfbHA6R-33" value="" style="endArrow=none;html=1;rounded=0;exitX=0;exitY=0.5;exitDx=0;exitDy=0;entryX=1;entryY=0.5;entryDx=0;entryDy=0;labelBackgroundColor=none;fontColor=default;strokeColor=#0B4D6A;" edge="1" parent="1" source="Z2ZuWP9p17zkISfbHA6R-3" target="Z2ZuWP9p17zkISfbHA6R-27">
          <mxGeometry relative="1" as="geometry">
            <mxPoint x="254" y="360" as="sourcePoint" />
            <mxPoint x="414" y="360" as="targetPoint" />
          </mxGeometry>
        </mxCell>
        <mxCell id="Z2ZuWP9p17zkISfbHA6R-34" value="1" style="resizable=0;html=1;whiteSpace=wrap;align=right;verticalAlign=bottom;labelBackgroundColor=none;fillColor=#09555B;strokeColor=#BAC8D3;fontColor=#EEEEEE;" connectable="0" vertex="1" parent="Z2ZuWP9p17zkISfbHA6R-33">
          <mxGeometry x="1" relative="1" as="geometry" />
        </mxCell>
        <mxCell id="Z2ZuWP9p17zkISfbHA6R-35" value="" style="shape=link;html=1;rounded=0;exitX=1;exitY=0.5;exitDx=0;exitDy=0;entryX=0;entryY=0.5;entryDx=0;entryDy=0;labelBackgroundColor=none;fontColor=default;strokeColor=#0B4D6A;" edge="1" parent="1" source="GzFKX5CuP2iNdJsE1r2e-6" target="Z2ZuWP9p17zkISfbHA6R-27">
          <mxGeometry relative="1" as="geometry">
            <mxPoint x="140" y="700" as="sourcePoint" />
            <mxPoint x="300" y="700" as="targetPoint" />
          </mxGeometry>
        </mxCell>
        <mxCell id="Z2ZuWP9p17zkISfbHA6R-36" value="N" style="resizable=0;html=1;whiteSpace=wrap;align=right;verticalAlign=bottom;labelBackgroundColor=none;fillColor=#09555B;strokeColor=#BAC8D3;fontColor=#EEEEEE;" connectable="0" vertex="1" parent="Z2ZuWP9p17zkISfbHA6R-35">
          <mxGeometry x="1" relative="1" as="geometry" />
        </mxCell>
        <mxCell id="Z2ZuWP9p17zkISfbHA6R-37" value="" style="endArrow=none;html=1;rounded=0;exitX=0.5;exitY=1;exitDx=0;exitDy=0;entryX=0.5;entryY=0;entryDx=0;entryDy=0;labelBackgroundColor=none;fontColor=default;strokeColor=#0B4D6A;" edge="1" parent="1" source="GzFKX5CuP2iNdJsE1r2e-6" target="Z2ZuWP9p17zkISfbHA6R-31">
          <mxGeometry relative="1" as="geometry">
            <mxPoint x="490" y="288" as="sourcePoint" />
            <mxPoint x="250" y="460" as="targetPoint" />
          </mxGeometry>
        </mxCell>
        <mxCell id="Z2ZuWP9p17zkISfbHA6R-38" value="1" style="resizable=0;html=1;whiteSpace=wrap;align=right;verticalAlign=bottom;labelBackgroundColor=none;fillColor=#09555B;strokeColor=#BAC8D3;fontColor=#EEEEEE;" connectable="0" vertex="1" parent="Z2ZuWP9p17zkISfbHA6R-37">
          <mxGeometry x="1" relative="1" as="geometry" />
        </mxCell>
        <mxCell id="Z2ZuWP9p17zkISfbHA6R-39" value="" style="shape=link;html=1;rounded=0;exitX=0.5;exitY=0;exitDx=0;exitDy=0;entryX=0.5;entryY=1;entryDx=0;entryDy=0;labelBackgroundColor=none;fontColor=default;strokeColor=#0B4D6A;" edge="1" parent="1" source="Z2ZuWP9p17zkISfbHA6R-20" target="Z2ZuWP9p17zkISfbHA6R-31">
          <mxGeometry relative="1" as="geometry">
            <mxPoint x="300" y="288" as="sourcePoint" />
            <mxPoint x="360" y="288" as="targetPoint" />
          </mxGeometry>
        </mxCell>
        <mxCell id="Z2ZuWP9p17zkISfbHA6R-40" value="N" style="resizable=0;html=1;whiteSpace=wrap;align=right;verticalAlign=bottom;labelBackgroundColor=none;fillColor=#09555B;strokeColor=#BAC8D3;fontColor=#EEEEEE;" connectable="0" vertex="1" parent="Z2ZuWP9p17zkISfbHA6R-39">
          <mxGeometry x="1" relative="1" as="geometry" />
        </mxCell>
        <mxCell id="Z2ZuWP9p17zkISfbHA6R-41" value="좋아요" style="rhombus;whiteSpace=wrap;html=1;labelBackgroundColor=none;fillColor=#09555B;strokeColor=#BAC8D3;fontColor=#EEEEEE;" vertex="1" parent="1">
          <mxGeometry x="350" y="110" width="80" height="50" as="geometry" />
        </mxCell>
        <mxCell id="Z2ZuWP9p17zkISfbHA6R-43" value="" style="endArrow=none;html=1;rounded=0;exitX=0.5;exitY=0;exitDx=0;exitDy=0;entryX=1;entryY=0.5;entryDx=0;entryDy=0;labelBackgroundColor=none;fontColor=default;strokeColor=#0B4D6A;" edge="1" parent="1" source="Z2ZuWP9p17zkISfbHA6R-3" target="Z2ZuWP9p17zkISfbHA6R-41">
          <mxGeometry relative="1" as="geometry">
            <mxPoint x="300" y="190" as="sourcePoint" />
            <mxPoint x="460" y="190" as="targetPoint" />
          </mxGeometry>
        </mxCell>
        <mxCell id="Z2ZuWP9p17zkISfbHA6R-44" value="N" style="resizable=0;html=1;whiteSpace=wrap;align=right;verticalAlign=bottom;labelBackgroundColor=none;fillColor=#09555B;strokeColor=#BAC8D3;fontColor=#EEEEEE;" connectable="0" vertex="1" parent="Z2ZuWP9p17zkISfbHA6R-43">
          <mxGeometry x="1" relative="1" as="geometry" />
        </mxCell>
        <mxCell id="Z2ZuWP9p17zkISfbHA6R-45" value="" style="endArrow=none;html=1;rounded=0;exitX=0.5;exitY=0;exitDx=0;exitDy=0;entryX=0;entryY=0.5;entryDx=0;entryDy=0;labelBackgroundColor=none;fontColor=default;strokeColor=#0B4D6A;" edge="1" parent="1" source="GzFKX5CuP2iNdJsE1r2e-6" target="Z2ZuWP9p17zkISfbHA6R-41">
          <mxGeometry relative="1" as="geometry">
            <mxPoint x="301" y="253" as="sourcePoint" />
            <mxPoint x="211" y="130" as="targetPoint" />
          </mxGeometry>
        </mxCell>
        <mxCell id="Z2ZuWP9p17zkISfbHA6R-46" value="M\" style="resizable=0;html=1;whiteSpace=wrap;align=right;verticalAlign=bottom;labelBackgroundColor=none;fillColor=#09555B;strokeColor=#BAC8D3;fontColor=#EEEEEE;" connectable="0" vertex="1" parent="Z2ZuWP9p17zkISfbHA6R-45">
          <mxGeometry x="1" relative="1" as="geometry" />
        </mxCell>
      </root>
    </mxGraphModel>
  </diagram>
</mxfile>
